<?xml version="1.0" encoding="UTF-8" standalone="no"?>
<!-- Created with Inkscape (http://www.inkscape.org/) -->

<svg
   width="100"
   height="100"
   viewBox="0 0 26.458322 26.45839"
   version="1.1"
   id="svg5"
   xml:space="preserve"
   inkscape:export-filename="растровый.png"
   inkscape:export-xdpi="96"
   inkscape:export-ydpi="96"
   inkscape:version="1.1.1 (3bf5ae0d25, 2021-09-20)"
   sodipodi:docname="Ручка.svg"
   xmlns:inkscape="http://www.inkscape.org/namespaces/inkscape"
   xmlns:sodipodi="http://sodipodi.sourceforge.net/DTD/sodipodi-0.dtd"
   xmlns="http://www.w3.org/2000/svg"
   xmlns:svg="http://www.w3.org/2000/svg"><sodipodi:namedview
     id="namedview7"
     pagecolor="#ffffff"
     bordercolor="#000000"
     borderopacity="0.25"
     inkscape:showpageshadow="2"
     inkscape:pageopacity="0.0"
     inkscape:pagecheckerboard="true"
     inkscape:deskcolor="#d1d1d1"
     inkscape:document-units="mm"
     showgrid="false"
     inkscape:zoom="5.5446689"
     inkscape:cx="55.548853"
     inkscape:cy="42.292877"
     inkscape:window-width="1920"
     inkscape:window-height="1001"
     inkscape:window-x="2391"
     inkscape:window-y="-9"
     inkscape:window-maximized="1"
     inkscape:current-layer="layer2"
     inkscape:pageshadow="0" /><defs
     id="defs2"><linearGradient
       id="linearGradient971"
       inkscape:swatch="solid"><stop
         style="stop-color:#ff3f3f;stop-opacity:1;"
         offset="0"
         id="stop969" /></linearGradient><inkscape:perspective
       sodipodi:type="inkscape:persp3d"
       inkscape:vp_x="0 : 21.166712 : 1"
       inkscape:vp_y="0 : 1000.0037 : 0"
       inkscape:vp_z="55.562496 : 21.166712 : 1"
       inkscape:persp3d-origin="27.781248 : 19.40282 : 1"
       id="perspective10407" /><inkscape:path-effect
       effect="spiro"
       id="path-effect8895"
       is_visible="true"
       lpeversion="1" /><inkscape:path-effect
       effect="spiro"
       id="path-effect8891"
       is_visible="true"
       lpeversion="1" /><inkscape:path-effect
       effect="spiro"
       id="path-effect8887"
       is_visible="true"
       lpeversion="1" /><rect
       x="11.477621"
       y="-41.829552"
       width="203.79153"
       height="145.89333"
       id="rect400" /><clipPath
       id="clip0"><rect
         x="431"
         y="254"
         width="10"
         height="37"
         id="rect6469" /></clipPath></defs><g
     inkscape:groupmode="layer"
     id="layer2"
     inkscape:label="ЗНАК 2"><g
       clip-path="url(#clip0)"
       transform="matrix(-0.61915741,-0.43192032,0.43192032,-0.61915741,164.72366,370.6847)"
       id="g6476"
       style="fill:#1255b4;fill-opacity:0.992157;stroke:#1255b4;stroke-opacity:0.992157;stroke-width:0.05362302;stroke-miterlimit:4;stroke-dasharray:none"
       inkscape:export-filename="..\картинки\g6476.png"
       inkscape:export-xdpi="96"
       inkscape:export-ydpi="96"><path
         d="m 439.883,263.299 v 3.11 h -2.603 c -0.288,0 -0.537,0.278 -0.537,0.556 0,0.321 0.249,0.559 0.537,0.559 h 2.644 v 18.016 h -7.723 v -18.016 h 2.768 c 0.33,0 0.576,-0.238 0.576,-0.559 0,-0.278 -0.246,-0.556 -0.576,-0.556 h -2.768 v -3.11 z m -3.907,-9.296 c -0.802,0 -1.607,0.389 -2.041,1.165 l -1.034,2.431 c -0.083,0.321 0.042,0.599 0.372,0.719 0.052,0.014 0.104,0.02 0.156,0.02 0.243,0 0.479,-0.15 0.548,-0.378 l 0.992,-2.313 c 0.209,-0.385 0.608,-0.582 1.01,-0.582 0.392,0 0.788,0.19 1.013,0.582 l 2.519,6.497 h -7.022 c 0.124,-0.281 0,0 0.784,-2.152 0.083,-0.318 -0.042,-0.599 -0.372,-0.68 -0.065,-0.026 -0.135,-0.04 -0.201,-0.04 -0.225,0 -0.437,0.144 -0.499,0.362 l -0.785,2.152 c -0.249,0.556 -0.413,1.155 -0.413,1.751 v 3.428 19.131 1.794 c 0,1.078 0.618,2.153 1.61,2.712 0.077,0.036 0.167,0.053 0.254,0.053 0.201,0 0.406,-0.087 0.489,-0.254 0.167,-0.278 0.083,-0.636 -0.205,-0.757 -0.621,-0.358 -1.034,-0.997 -1.034,-1.754 v -1.235 h 7.724 v 1.235 c 0,1.118 -0.947,1.992 -2.064,1.992 h -2.644 c -0.33,0 -0.58,0.241 -0.58,0.559 0,0.281 0.25,0.559 0.58,0.559 h 2.644 c 1.734,0 3.181,-1.396 3.181,-3.11 v -24.353 c 0.042,-0.435 -0.454,-1.911 -0.454,-1.911 l -2.519,-6.458 c -0.413,-0.776 -1.211,-1.165 -2.009,-1.165 z"
         fill="#657e93"
         fill-rule="evenodd"
         id="path6474"
         style="fill:#1255b4;fill-opacity:0.992157;stroke:#1255b4;stroke-opacity:0.992157;stroke-width:0.05362302;stroke-miterlimit:4;stroke-dasharray:none" /></g></g></svg>
